<svg xmlns="http://www.w3.org/2000/svg" style="display:none;">
  <symbol id="icon-theme" viewBox="0 0 24 24">
    <path fill="none" stroke="currentColor" stroke-width="2" stroke-linecap="round" stroke-linejoin="round" d="M21 12.79A9 9 0 1 1 11.21 3 7 7 0 0 0 21 12.79z"></path>
  </symbol>
  <symbol id="icon-logout" viewBox="0 0 24 24">
    <path fill="none" stroke="currentColor" stroke-width="2" stroke-linecap="round" stroke-linejoin="round" d="M9 21H5a2 2 0 0 1-2-2V5a2 2 0 0 1 2-2h4"></path>
    <polyline fill="none" stroke="currentColor" stroke-width="2" stroke-linecap="round" stroke-linejoin="round" points="16 17 21 12 16 7"></polyline>
    <line fill="none" stroke="currentColor" stroke-width="2" stroke-linecap="round" stroke-linejoin="round" x1="21" y1="12" x2="9" y2="12"></line>
  </symbol>
  <symbol id="icon-search" viewBox="0 0 24 24">
    <circle fill="none" stroke="currentColor" stroke-width="2" stroke-linecap="round" stroke-linejoin="round" cx="11" cy="11" r="8"></circle>
    <line fill="none" stroke="currentColor" stroke-width="2" stroke-linecap="round" stroke-linejoin="round" x1="21" y1="21" x2="16.65" y2="16.65"></line>
  </symbol>
  <symbol id="icon-book" viewBox="0 0 24 24">
    <path fill="none" stroke="currentColor" stroke-width="2" stroke-linecap="round" stroke-linejoin="round" d="M4 19.5A2.5 2.5 0 0 1 6.5 17H20"></path>
    <path fill="none" stroke="currentColor" stroke-width="2" stroke-linecap="round" stroke-linejoin="round" d="M6.5 2H20v20H6.5A2.5 2.5 0 0 1 4 19.5v-15A2.5 2.5 0 0 1 6.5 2z"></path>
  </symbol>
  <symbol id="icon-user" viewBox="0 0 24 24">
    <path fill="none" stroke="currentColor" stroke-width="2" stroke-linecap="round" stroke-linejoin="round" d="M20 21v-2a4 4 0 0 0-4-4H8a4 4 0 0 0-4 4v2"></path>
    <circle fill="none" stroke="currentColor" stroke-width="2" stroke-linecap="round" stroke-linejoin="round" cx="12" cy="7" r="4"></circle>
  </symbol>
</svg>
