<svg xmlns="http://www.w3.org/2000/svg" style="display: none;">

<symbol id="icon-search" viewBox="0 0 32 32">
<path d="M31.008 27.231l-7.58-6.447c-0.784-0.705-1.622-1.029-2.299-0.998 1.789-2.096 2.87-4.815 2.87-7.787 0-6.627-5.373-12-12-12s-12 5.373-12 12 5.373 12 12 12c2.972 0 5.691-1.081 7.787-2.87-0.031 0.677 0.293 1.515 0.998 2.299l6.447 7.58c1.104 1.226 2.907 1.33 4.007 0.23s0.997-2.903-0.23-4.007zM12 20c-4.418 0-8-3.582-8-8s3.582-8 8-8 8 3.582 8 8-3.582 8-8 8z"></path>
</symbol>

<symbol id="icon-home" viewBox="0 0 32 32">
<path d="M32 18.451l-16-12.42-16 12.42v-5.064l16-12.42 16 12.42zM28 18v12h-8v-8h-8v8h-8v-12l12-9z"></path>
</symbol>

<symbol id="icon-heart" viewBox="0 0 24 24">
    <path stroke-linecap="round" stroke-linejoin="round" d="M21 8.25c0-2.485-2.099-4.5-4.688-4.5-1.935 0-3.597 1.126-4.312 2.733-.715-1.607-2.377-2.733-4.313-2.733C5.1 3.75 3 5.765 3 8.25c0 7.22 9 12 9 12s9-4.78 9-12z" />
</symbol>

<symbol id="icon-ticket" viewBox="0 0 24 24">
  <path stroke-linecap="round" stroke-linejoin="round" d="M16.5 6v.75m0 3v.75m0 3v.75m0 3V18m-9-5.25h5.25M7.5 15h3M3.375 5.25c-.621 0-1.125.504-1.125 1.125v3.026a2.999 2.999 0 0 1 0 5.198v3.026c0 .621.504 1.125 1.125 1.125h17.25c.621 0 1.125-.504 1.125-1.125v-3.026a2.999 2.999 0 0 1 0-5.198V6.375c0-.621-.504-1.125-1.125-1.125H3.375Z" />
</symbol>

<symbol id="icon-magnifying-glass-circle" viewBox="0 0 24 24">
  <path stroke-linecap="round" stroke-linejoin="round" d="m15.75 15.75-2.489-2.489m0 0a3.375 3.375 0 1 0-4.773-4.773 3.375 3.375 0 0 0 4.774 4.774ZM21 12a9 9 0 1 1-18 0 9 9 0 0 1 18 0Z" />
</symbol>

<symbol id="icon-eye" viewBox="0 0 24 24">
  <path stroke-linecap="round" stroke-linejoin="round" d="M2.036 12.322a1.012 1.012 0 0 1 0-.639C3.423 7.51 7.36 4.5 12 4.5c4.638 0 8.573 3.007 9.963 7.178.07.207.07.431 0 .639C20.577 16.49 16.64 19.5 12 19.5c-4.638 0-8.573-3.007-9.963-7.178Z" />
  <path stroke-linecap="round" stroke-linejoin="round" d="M15 12a3 3 0 1 1-6 0 3 3 0 0 1 6 0Z" />
</symbol>

<symbol id="icon-buy" viewBox="0 0 24 24">
  <path stroke-linecap="round" stroke-linejoin="round" d="M2.25 8.25h19.5M2.25 9h19.5m-16.5 5.25h6m-6 2.25h3m-3.75 3h15a2.25 2.25 0 0 0 2.25-2.25V6.75A2.25 2.25 0 0 0 19.5 4.5h-15a2.25 2.25 0 0 0-2.25 2.25v10.5A2.25 2.25 0 0 0 4.5 19.5Z" />
</symbol>
<!-- icons for event types -->
    <!-- Sports -->
    <symbol id="icon-sport" viewBox="0 0 640 640">
      <path d="M353.8 118.1L330.2 70.3C326.3 62 314.1 61.7 309.8 70.3L286.2 118.1L233.9 125.6C224.6 127 220.6 138.5 227.5 145.4L265.5 182.4L256.5 234.5C255.1 243.8 264.7 251 273.3 246.7L320.2 221.9L366.8 246.3C375.4 250.6 385.1 243.4 383.6 234.1L374.6 182L412.6 145.4C419.4 138.6 415.5 127.1 406.2 125.6L353.9 118.1zM288 320C261.5 320 240 341.5 240 368L240 528C240 554.5 261.5 576 288 576L352 576C378.5 576 400 554.5 400 528L400 368C400 341.5 378.5 320 352 320L288 320zM80 384C53.5 384 32 405.5 32 432L32 528C32 554.5 53.5 576 80 576L144 576C170.5 576 192 554.5 192 528L192 432C192 405.5 170.5 384 144 384L80 384zM448 496L448 528C448 554.5 469.5 576 496 576L560 576C586.5 576 608 554.5 608 528L608 496C608 469.5 586.5 448 560 448L496 448C469.5 448 448 469.5 448 496z"/>
    </symbol>
    
    <!-- Concert -->
    <symbol id="icon-music" viewBox="0 0 24 24">
        <path d="M12 3v10.55c-.59-.34-1.27-.55-2-.55-2.21 0-4 1.79-4 4s1.79 4 4 4 4-1.79 4-4V7h4V3h-6z"/>
    </symbol>
    
    <!-- Theatre -->
    <symbol id="icon-theater" viewBox="0 0 640 640">
      <path d="M27 182L55.5 343.7C69.5 423.2 131.8 485.5 211.3 499.5L224 501.7C207.5 473.1 196.9 441 193.4 407.2L169.3 411.5C159.6 413.2 150.5 405.7 152.4 396C157.2 371.3 171.5 349.4 192.1 335.1L192.1 260.5C190.7 261.3 189.1 261.8 187.4 262.1L124.4 273.2C115.7 274.7 107.1 268.8 108.5 260.1C111.6 240.5 126.9 224.1 147.6 220.4C164.8 217.4 181.5 223.9 192.2 236.2L192.2 213.5C192.2 191 199.1 161.1 224.5 140.1C250.5 118.6 292.2 96.2 349.4 85.9C318.9 69.6 263.1 53.9 185.6 67.5C105.3 81.7 57.6 117.6 35.5 143.6C26.5 154.1 24.7 168.5 27.1 182.1zM240 202.7L240 377.5C240 458.2 290.5 530.4 366.4 557.9L394.1 568C408.2 573.1 423.7 573.1 437.8 568L465.6 558C541.5 530.4 592 458.3 592 377.5L592 202.7C592 195.8 589.9 188.9 585 184.1C562.4 161.6 506.8 128.1 416 128.1C325.2 128.1 269.6 161.7 247 184.1C242.1 189 240 195.8 240 202.7zM306.1 389.8C304.7 382.8 313.1 378.8 318.8 383.2C345.7 403.8 379.4 416.1 416 416.1C452.6 416.1 486.2 403.8 513.2 383.2C518.9 378.8 527.3 382.8 525.9 389.8C515.8 441.2 470.4 480.1 416 480.1C361.6 480.1 316.2 441.3 306.1 389.8zM306.6 288.3C313.2 269.5 331 256 352 256C373 256 390.9 269.5 397.4 288.3C400.3 296.7 392.9 304 384 304L320 304C311.2 304 303.7 296.6 306.6 288.3zM512 304L448 304C439.2 304 431.7 296.6 434.6 288.3C441.1 269.5 459 256 480 256C501 256 518.9 269.5 525.4 288.3C528.3 296.7 520.9 304 512 304z"/>
    </symbol>
  
    <!-- exhibition -->
    <symbol id="icon-gallery" viewBox="0 0 640 640">
      <path d="M576 320C576 320.9 576 321.8 576 322.7C575.6 359.2 542.4 384 505.9 384L408 384C381.5 384 360 405.5 360 432C360 435.4 360.4 438.7 361 441.9C363.1 452.1 367.5 461.9 371.8 471.8C377.9 485.6 383.9 499.3 383.9 513.8C383.9 545.6 362.3 574.5 330.5 575.8C327 575.9 323.5 576 319.9 576C178.5 576 63.9 461.4 63.9 320C63.9 178.6 178.6 64 320 64C461.4 64 576 178.6 576 320zM192 352C192 334.3 177.7 320 160 320C142.3 320 128 334.3 128 352C128 369.7 142.3 384 160 384C177.7 384 192 369.7 192 352zM192 256C209.7 256 224 241.7 224 224C224 206.3 209.7 192 192 192C174.3 192 160 206.3 160 224C160 241.7 174.3 256 192 256zM352 160C352 142.3 337.7 128 320 128C302.3 128 288 142.3 288 160C288 177.7 302.3 192 320 192C337.7 192 352 177.7 352 160zM448 256C465.7 256 480 241.7 480 224C480 206.3 465.7 192 448 192C430.3 192 416 206.3 416 224C416 241.7 430.3 256 448 256z"/>
    </symbol>

        <!-- festival -->
    <symbol id="icon-festival" viewBox="0 0 640 640">
      <path d="M238.9 336C249.6 336 259.6 341.3 265.5 350.2L277.3 368L304 368C330.5 368 352 389.5 352 416L352 528C352 554.5 330.5 576 304 576L112 576C85.5 576 64 554.5 64 528L64 416C64 389.5 85.5 368 112 368L138.7 368L150.5 350.2C156.4 341.3 166.4 336 177.1 336L238.8 336zM517.5 324C523.1 319.1 531.4 318.7 537.4 323.1C543.4 327.5 545.7 335.5 542.7 342.4L504.3 432L560 432C566.7 432 572.6 436.1 575 442.4C577.4 448.7 575.6 455.7 570.6 460.1L442.6 572.1C437 577 428.7 577.4 422.7 573C416.7 568.6 414.4 560.6 417.4 553.7L455.9 464L400.1 464C393.4 464 387.5 459.9 385.1 453.6C382.7 447.3 384.5 440.3 389.5 435.9L517.5 323.9zM208 424C181.5 424 160 445.5 160 472C160 498.5 181.5 520 208 520C234.5 520 256 498.5 256 472C256 445.5 234.5 424 208 424zM547.8 64.4C554.3 63.3 560.9 64.8 566.3 68.8C572.4 73.3 576 80.5 576 88L576 240L575.7 244.9C572.4 269.1 545.2 288 512 288C476.7 288 448 266.5 448 240C448 213.5 476.7 192 512 192C517.5 192 522.9 192.6 528 193.6L528 144.3L416 177.9L416 288.1L415.7 293C412.4 317.2 385.2 336.1 352 336.1C316.7 336.1 288 314.6 288 288.1C288 261.6 316.7 240.1 352 240.1C357.5 240.1 362.9 240.7 368 241.7L368 136C368 125.4 375 116 385.1 113L545.1 65L547.8 64.4zM252.9 64C290 64 320 94 320 131.1L320 137.2C320 193.3 244.8 249.3 209.7 272.5C198.9 279.6 185.1 279.6 174.3 272.5C139.2 249.4 64 193.3 64 137.2L64 131.1C64 94 94 64 131.1 64C152.2 64 172 73.9 184.7 90.8L192 100.6L199.3 90.8C212 73.9 231.8 64 252.9 64z"/>
    </symbol>
    
    <!-- Defalt -->
    <symbol id="icon-default" viewBox="0 0 640 640">
      <path d="M216 64C229.3 64 240 74.7 240 88L240 128L400 128L400 88C400 74.7 410.7 64 424 64C437.3 64 448 74.7 448 88L448 128L480 128C515.3 128 544 156.7 544 192L544 480C544 515.3 515.3 544 480 544L160 544C124.7 544 96 515.3 96 480L96 192C96 156.7 124.7 128 160 128L192 128L192 88C192 74.7 202.7 64 216 64zM480 496C488.8 496 496 488.8 496 480L496 416L408 416L408 496L480 496zM496 368L496 288L408 288L408 368L496 368zM360 368L360 288L280 288L280 368L360 368zM232 368L232 288L144 288L144 368L232 368zM144 416L144 480C144 488.8 151.2 496 160 496L232 496L232 416L144 416zM280 416L280 496L360 496L360 416L280 416zM216 176L160 176C151.2 176 144 183.2 144 192L144 240L496 240L496 192C496 183.2 488.8 176 480 176L216 176z"/>
    </symbol>
</svg>


