<?xml version="1.0" encoding="UTF-8"?>
<svg xmlns="http://www.w3.org/2000/svg" xmlns:xlink="http://www.w3.org/1999/xlink" style="display:none">
  
  <symbol id="bars" viewBox="0 0 24 24">
    <line x1="3" y1="6" x2="21" y2="6" stroke="currentColor" stroke-width="2" stroke-linecap="round"/>
    <line x1="3" y1="12" x2="21" y2="12" stroke="currentColor" stroke-width="2" stroke-linecap="round"/>
    <line x1="3" y1="18" x2="21" y2="18" stroke="currentColor" stroke-width="2" stroke-linecap="round"/>
  </symbol>
  
  <symbol id="calendar" viewBox="0 0 24 24">
    <rect x="3" y="4" width="18" height="16" rx="2" stroke-width="2" stroke="currentColor" fill="none"/>
    <line x1="3" y1="8" x2="21" y2="8" stroke-width="2" stroke="currentColor"/>
    <line x1="8" y1="2" x2="8" y2="6" stroke-width="2" stroke="currentColor"/>
    <line x1="16" y1="2" x2="16" y2="6" stroke-width="2" stroke="currentColor"/>
  </symbol>
  
  <symbol id="activity" viewBox="0 0 24 24">
    <polyline points="3,17 9,11 13,15 17,7 21,11" stroke-width="2" stroke="currentColor" fill="none"/>
  </symbol>
  
  <symbol id="location" viewBox="0 0 24 24">
    <path d="M12 21s7-5.686 7-11a7 7 0 1 0-14 0c0 5.314 7 11 7 11Z" stroke-width="2" stroke="currentColor" fill="none"/>
    <circle cx="12" cy="10" r="2.5" stroke-width="2" stroke="currentColor" fill="none"/>
  </symbol>
  
  <symbol id="check" viewBox="0 0 24 24">
    <polyline points="5,13 10,18 19,5" stroke-width="2" stroke="currentColor" fill="none"/>
  </symbol>
</svg>