<svg xmlns="http://www.w3.org/2000/svg" style="display:none">
  <symbol id="icon-home" viewBox="0 0 24 24"><path fill="currentColor" d="M12 3.2 3.5 10v10.3c0 .4.3.7.7.7h5.1c.4 0 .7-.3.7-.7V14h4v6.3c0 .4.3.7.7.7h5.1c.4 0 .7-.3.7-.7V10L12 3.2Z"/></symbol>
  <symbol id="icon-wallet" viewBox="0 0 24 24"><path fill="currentColor" d="M4 6.5A2.5 2.5 0 0 1 6.5 4H18a1 1 0 1 1 0 2H6.5a.5.5 0 0 0 0 1H20a1 1 0 0 1 1 1V18a2 2 0 0 1-2 2H6.5A2.5 2.5 0 0 1 4 17.5v-11ZM18.5 12a1.5 1.5 0 1 0 0 3a1.5 1.5 0 0 0 0-3Z"/></symbol>
  <symbol id="icon-chart" viewBox="0 0 24 24"><path fill="currentColor" d="M5 3a1 1 0 0 1 1 1v15h15a1 1 0 1 1 0 2H5a1 1 0 0 1-1-1V4a1 1 0 0 1 1-1Zm13.7 4.3a1 1 0 0 1 0 1.4l-4.6 4.6a1 1 0 0 1-1.4 0l-2.2-2.2l-3.8 3.8a1 1 0 1 1-1.4-1.4l4.5-4.5a1 1 0 0 1 1.4 0l2.2 2.2l3.9-3.9a1 1 0 0 1 1.4 0Z"/></symbol>
  <symbol id="icon-plug" viewBox="0 0 24 24"><path fill="currentColor" d="M7 2a1 1 0 0 1 1 1v4h2V3a1 1 0 1 1 2 0v4h2V3a1 1 0 1 1 2 0v4h1a1 1 0 0 1 1 1a6 6 0 0 1-5 5.92V18a3 3 0 1 1-6 0a1 1 0 1 1 2 0a1 1 0 1 0 2 0v-4.08A6 6 0 0 1 6 8a1 1 0 0 1 1-1h1V3a1 1 0 0 1 1-1Z"/></symbol>
  <symbol id="icon-login" viewBox="0 0 24 24"><path fill="currentColor" d="M10 4a1 1 0 0 1 1-1h8a2 2 0 0 1 2 2v14a2 2 0 0 1-2 2h-8a1 1 0 1 1 0-2h8V5h-8a1 1 0 0 1-1-1Zm-4.3 7.3l2.5-2.5a1 1 0 1 1 1.4 1.4L8.7 11H15a1 1 0 1 1 0 2H8.7l.9.8a1 1 0 1 1-1.4 1.4l-2.5-2.5a1 1 0 0 1 0-1.4Z"/></symbol>
  <symbol id="icon-user-plus" viewBox="0 0 24 24"><path fill="currentColor" d="M15 8a4 4 0 1 1-8 0a4 4 0 0 1 8 0Zm-4 6c4.4 0 8 2.2 8 5a1 1 0 1 1-2 0c0-1.4-2.5-3-6-3s-6 1.6-6 3a1 1 0 1 1-2 0c0-2.8 3.6-5 8-5Zm9-9h2v2h-2v2h-2V7h-2V5h2V3h2v2Z"/></symbol>
  <symbol id="icon-sun" viewBox="0 0 24 24"><path fill="currentColor" d="M12 5a1 1 0 0 1-1-1V2a1 1 0 1 1 2 0v2a1 1 0 0 1-1 1Zm0 14a1 1 0 0 1 1 1v2a1 1 0 1 1-2 0v-2a1 1 0 0 1 1-1Zm7-6a1 1 0 1 1 0-2h2a1 1 0 1 1 0 2h-2ZM3 12a1 1 0 0 1 1-1h2a1 1 0 1 1 0 2H4a1 1 0 0 1-1-1Zm13.66 5.24a1 1 0 0 1 1.42 0l1.42 1.42a1 1 0 1 1-1.42 1.42l-1.42-1.42a1 1 0 0 1 0-1.42ZM4.5 4.5a1 1 0 0 1 1.42 0l1.42 1.42A1 1 0 0 1 5.92 7.34L4.5 5.92A1 1 0 0 1 4.5 4.5Zm13.58 2.84a1 1 0 0 1-1.42-1.42l1.42-1.42a1 1 0 1 1 1.42 1.42l-1.42 1.42ZM5.92 20.5A1 1 0 0 1 4.5 19.08l1.42-1.42a1 1 0 0 1 1.42 1.42L5.92 20.5ZM12 7a5 5 0 1 1 0 10a5 5 0 0 1 0-10Z"/></symbol>
  <symbol id="icon-moon" viewBox="0 0 24 24"><path fill="currentColor" d="M14.8 3.6a1 1 0 0 1 .25 1.08A8 8 0 1 0 19.32 15a1 1 0 0 1 1.08.25a1 1 0 0 1 .18 1.1A10 10 0 1 1 13.72 2.42a1 1 0 0 1 1.08.18Z"/></symbol>
  <symbol id="icon-monitor" viewBox="0 0 24 24"><path fill="currentColor" d="M4 4a2 2 0 0 1 2-2h12a2 2 0 0 1 2 2v10a2 2 0 0 1-2 2h-5v2h3a1 1 0 1 1 0 2H8a1 1 0 1 1 0-2h3v-2H6a2 2 0 0 1-2-2V4Zm2 0v10h12V4H6Z"/></symbol>
  <symbol id="icon-usd" viewBox="0 0 24 24"><path fill="currentColor" d="M12 1v22M17 5a5 5 0 0 0-10 0c0 7 10 3 10 10a5 5 0 0 1-10 0"/></symbol>
  <symbol id="icon-eur" viewBox="0 0 24 24"><path fill="currentColor" d="M18 6a8 8 0 1 0 0 12M6 10h8M6 14h8"/></symbol>
</svg>